<svg width="1600" height="900" viewBox="0 0 1600 900" fill="none" xmlns="http://www.w3.org/2000/svg">
<g clip-path="url(#clip0_62_23632)">
<path fill-rule="evenodd" clip-rule="evenodd" d="M26.667 20H33.333V0H1525V6.66699H40V26.667H26.667V40H6.66699V820H0V33.333H20V26.667H0V0H26.667V20ZM6.66699 20H20V6.66699H6.66699V20Z" fill="#D9D9D9"/>
<path d="M1529.5 824.5H13.332V46.667H46.665V13.334H1529.5V824.5Z" fill="#D9D9D9"/>
<path d="M40 40H33.333V33.333H40V40Z" fill="#D9D9D9"/>
<path fill-rule="evenodd" clip-rule="evenodd" d="M1573.33 20H1566.67V0H1520V6.66699H1560V26.667H1573.33V40H1593.33V831H1600V33.333H1580V26.667H1600V0H1573.33V20ZM1593.33 20H1580V6.66699H1593.33V20Z" fill="#D9D9D9"/>
<path d="M1520 838H1586.67V46.667H1553.33V13.334H1520V838Z" fill="#D9D9D9"/>
<path d="M1560 40H1566.67V33.333H1560V40Z" fill="#D9D9D9"/>
<path fill-rule="evenodd" clip-rule="evenodd" d="M26.667 880H33.333V900H1525V893.333H40V873.333H26.667V860H6.66699V820H0V866.667H20V873.333H0V900H26.667V880ZM6.66699 880H20V893.333H6.66699V880Z" fill="#D9D9D9"/>
<path d="M1523.5 820H13.332V853.333H46.665V886.666H1523.5V820Z" fill="#D9D9D9"/>
<path d="M40 860H33.333V866.667H40V860Z" fill="#D9D9D9"/>
<path fill-rule="evenodd" clip-rule="evenodd" d="M1573.33 880H1566.67V900H1520V893.333H1560V873.333H1573.33V860H1593.33V820H1600V866.667H1580V873.333H1600V900H1573.33V880ZM1593.33 880H1580V893.333H1593.33V880Z" fill="#D9D9D9"/>
<path d="M1520 820H1586.67V853.333H1553.33V886.666H1520V820Z" fill="#D9D9D9"/>
<path d="M1560 860H1566.67V866.667H1560V860Z" fill="#D9D9D9"/>
</g>
<defs>
<clipPath id="clip0_62_23632">
<rect width="1600" height="900" fill="white"/>
</clipPath>
</defs>
</svg>
