<?xml version="1.0" encoding="UTF-8"?>
<svg id="Layer_2" data-name="Layer 2" xmlns="http://www.w3.org/2000/svg" viewBox="0 0 2114.27 710.57">
  <defs>
    <style>
      .cls-1 {
        fill: #f6f6f6;
        stroke-width: 0px;
      }
    </style>
  </defs>
  <g id="Layer_1-2" data-name="Layer 1">
    <g>
      <path class="cls-1" d="M314.15,412.9c0,73.45.1,146.89-.11,220.34-.03,11.74-.38,23.66-2.43,35.16-3.63,20.3-16.96,29.64-35.66,32.27-10.72,1.51-21.08-.2-30.75-5.3-9.84-5.2-15.94-13.6-18.2-24.17-1.84-8.63-2.88-17.59-2.91-26.41-.44-161.13-.66-322.26-.99-483.39-.03-12.21.13-24.49-1.06-36.62-2.26-22.93-15.55-36.15-38.56-38.48-11.36-1.15-22.87-.98-34.32-1.04-24.99-.14-49.99.26-74.98-.17-13.44-.23-26.92-1.2-40.27-2.77-14.85-1.74-26.28-9.7-31.07-23.95C-5.05,34.89,3.23,9.26,31.01,3.29c7.73-1.66,15.79-2.47,23.7-2.5C190.85.37,326.99.03,463.13,0c14.64,0,29.39,1.27,43.88,3.36,16.26,2.34,27.93,14.81,30.23,30.97,2,14.05.07,27.25-10.91,37.72-8.11,7.73-18.16,10.8-28.91,11.29-19.88.92-39.78,1.61-59.68,1.78-19.61.17-39.22-.77-58.83-.55-10.06.11-20.28.79-30.1,2.82-19.84,4.1-30.58,16.19-32.68,36.41-1.18,11.36-.86,22.87-1.24,34.31-.21,6.42-.7,12.85-.7,19.27-.05,78.5-.03,157.01-.04,235.51Z"/>
      <path class="cls-1" d="M926.17,157.19c9.03,0,18.07-.32,27.08.07,14.06.62,28.18,1.07,42.12,2.79,19.41,2.39,31.84,13.95,35.86,33.1,2.51,11.96,3.56,24.23,5.38,36.34,2.2,14.69,7.74,20.28,22.47,22.42,9.54,1.39,19.29,1.77,28.66,3.87,8.25,1.86,16.73,4.39,23.98,8.58,11.58,6.7,15.76,18.71,17.75,31.32,1.77,11.19,3,22.46,4.69,33.66,1.49,9.87,7.19,16.31,17.06,18.04,11.3,1.98,22.78,2.92,34.08,4.93,7.05,1.25,14.17,2.95,20.77,5.64,15.57,6.36,22.6,19.26,22.67,35.28.1,23.98-.24,48.02-1.94,71.93-1.43,20-10.84,35.54-31.8,40.83-8.57,2.17-17.48,2.99-26.24,4.38-5.89.94-11.86,1.54-17.69,2.77-9.6,2.03-15.26,8.24-16.81,17.84-1.79,11.03-2.99,22.16-4.79,33.19-1.41,8.67-3.83,17.01-9.32,24.22-6.05,7.94-14.05,12.96-23.6,14.83-10.8,2.11-21.81,3.12-32.72,4.72-3.78.55-7.53,1.35-11.26,2.2-8.63,1.97-13.45,7.73-14.93,16.15-1.53,8.74-2.55,17.57-3.76,26.36-1.25,9.11-2.18,18.27-6.75,26.55-6.98,12.66-18.07,19.2-31.94,21.55-4.83.82-9.72,1.81-14.57,1.79-24.48-.11-49.06.78-73.4-1.2-24.68-2.01-38.37-14.39-42.47-41.63-1.5-9.99-2.4-20.08-3.86-30.07-1.9-12.97-7.8-18.84-20.84-20.74-11.06-1.61-22.25-2.47-33.23-4.46-23.31-4.23-34.43-15.34-38.76-38.73-2.03-10.98-2.76-22.19-4.62-33.21-2.2-13.04-7.46-18.29-20.62-20.53-12.22-2.08-24.58-3.32-36.83-5.26-16.57-2.63-30.57-15.95-33.64-32.41-1.51-8.09-2.4-16.39-2.65-24.62-.42-13.91-.61-27.86.08-41.75.44-8.94,1.7-18.07,4.22-26.63,4.46-15.14,15.6-24.01,30.79-27.22,10.16-2.15,20.58-3.1,30.87-4.63,3.03-.45,6.07-.92,9.05-1.61,11.7-2.72,16.75-7.99,18.6-19.91,1.48-9.53,2.33-19.16,3.92-28.68,1.59-9.53,3.67-18.9,9.93-26.85,6.28-7.99,14.38-13.07,24.08-14.94,12.31-2.37,24.83-3.68,37.25-5.54,14.75-2.22,20.34-7.74,22.5-22.41,1.56-10.6,2.58-21.29,4.37-31.85,4.18-24.77,19.18-35.75,42.49-38.61,6.07-.74,12.21-.92,18.31-1.35,0-.18.02-.35.02-.53ZM1129.63,409.25c.2-.02.39-.03.59-.05-.84-10.06-1.45-20.15-2.58-30.18-1.77-15.73-6.91-21.33-22.42-24.07-9.49-1.67-19.16-2.29-28.68-3.84-11.15-1.82-21.79-4.94-30.05-13.51-7.76-8.05-10.59-18.2-12.39-28.66-1.74-10.1-2.46-20.38-4-30.52-1.82-11.96-7.35-18.34-19.13-19.68-15.33-1.75-30.81-2.38-46.24-3.01-8.09-.33-16.22.41-24.33.61-14.97.37-30,.04-44.91,1.21-18.07,1.42-26.1,5.45-28.7,26.07-1.27,10.02-2.16,20.13-4.09,30.03-4.23,21.66-16.17,33.19-37.89,36.88-10.86,1.85-21.87,2.84-32.77,4.5-13.63,2.08-19.52,7.16-21.31,20.82-1.97,14.99-3.04,30.16-3.45,45.28-.42,15.3.25,30.64.84,45.94.25,6.4,1.35,12.79,2.37,19.13,1.76,10.85,8.18,17.2,19.12,18.71,9.56,1.32,19.12,2.55,28.7,3.7,28.31,3.39,41.18,15.68,45.4,43.81,1.46,9.69,2.28,19.47,3.72,29.16,1.9,12.83,6.25,18.42,19.06,20.1,15.88,2.09,31.99,2.55,48.03,3.27,7.78.35,15.61-.37,23.41-.56,14.67-.35,29.4.12,43.99-1.17,22.04-1.96,26.33-6.6,29.27-27.35,1.67-11.8,2.94-23.73,5.65-35.3,3.69-15.77,14.6-25.55,30.06-29.02,13.71-3.08,27.81-4.4,41.73-6.58,9.8-1.53,15.82-7.44,17.54-16.99,1.65-9.17,3.04-18.49,3.32-27.78.52-16.96.15-33.96.15-50.94Z"/>
      <path class="cls-1" d="M462.63,423.75c0-59.65-.1-119.31.08-178.96.03-10.98.33-22.1,1.97-32.92,4.81-31.69,34.62-38.42,55.55-32.47,9.62,2.73,17.46,7.86,24.34,14.96,3.93,4.06,8.07,8.06,12.67,11.29,9.91,6.95,20.12,5.05,29.87-.55,11.03-6.33,21.57-13.54,32.79-19.48,20.16-10.67,41.37-17.64,64.7-15.81,19.62,1.54,31.72,14.81,34.2,32.66,1.71,12.32,1.05,24.55-5.4,35.69-7.64,13.21-20.46,17.81-34.48,20.14-16.78,2.79-33.66,5.1-49.53,11.73-19.59,8.2-35.38,21.22-47.91,38.22-16.9,22.93-25.75,49.02-28.55,77.07-1.7,17.04-2.7,34.22-2.73,51.33-.1,56.42.56,112.83.52,169.25-.01,13.28-1.05,26.63-2.69,39.82-3.27,26.31-25.53,37.65-48.31,34.39-22.13-3.17-34.09-16.61-36.04-39.33-.82-9.59-1.02-19.25-1.04-28.88-.09-62.72-.04-125.44-.05-188.16Z"/>
      <path class="cls-1" d="M1896.96,710.57c-22.44.15-44.53-2.63-66.14-8.29-32.66-8.55-62.33-23.21-88.35-45.02-32.96-27.61-55.94-61.97-70.38-102.31-8.34-23.31-12.97-47.32-15.15-71.92-2.81-31.82-1.02-63.36,5.39-94.6,8.24-40.23,24.92-76.55,51.83-107.79,24.19-28.08,53.59-48.95,88.36-62.09,23.03-8.71,46.84-13.44,71.4-15.28,26.14-1.96,51.75.68,76.99,7.2,19.69,5.09,38.24,13.13,55.6,23.8,30.51,18.75,54.47,43.95,72.64,74.65,11.62,19.63,20.49,40.51,25.61,62.82,2.93,12.75,5.89,25.55,7.72,38.48,1.96,13.8,3.21,27.76-1.03,41.55-3.49,11.39-10.46,19.66-21.73,23.27-7.26,2.33-15.01,3.67-22.63,4.26-11.44.89-22.96.97-34.45.98-69.47.08-138.93,0-208.4.08-11.45.01-22.97-.06-34.33,1.11-13.1,1.35-24.26,6.77-29.01,20.35-3.15,9.01-2.05,18.25.69,27.09,7.31,23.56,20.16,43.74,38.15,60.65,12.04,11.31,25.8,19.84,41.1,25.96,15.41,6.17,31.42,9.18,48,10.15,26.12,1.53,51.32-2.13,75.76-11.37,15.26-5.77,28.81-14.51,41.9-24.07,4.34-3.17,8.77-6.26,13.36-9.06,18.03-11.01,36.17-8.94,51.55,5.62,8.67,8.21,14.96,17.6,14.6,30.05-.32,11.13-6.03,19.97-13.4,27.67-19.03,19.87-42.08,33.8-67.15,44.65-27.82,12.04-57.02,18.2-87.16,20.25-7.11.48-14.22.78-21.34,1.16ZM1889.18,283.98c-8.09.8-16.28,1.04-24.25,2.5-45.31,8.29-77.78,33.17-95.74,75.87-2.27,5.39-2.99,12.05-2.38,17.91,1.39,13.3,9.77,21.22,23.97,24.05,12.9,2.57,25.93,2.26,39.05,2.09,37.7-.49,75.41-.17,113.12-.17,8.41,0,16.91.69,25.21-.26,8.13-.93,16.66-2.28,23.95-5.71,12.69-5.97,17.1-19.89,12.55-34.96-8.02-26.54-24.87-46.64-47.52-61.67-20.38-13.52-43.34-19.56-67.96-19.65Z"/>
      <path class="cls-1" d="M1271.52,211.24c14.01-.16,27.26,2.45,38.52,11.43,9.13,7.28,15.03,17.08,19.25,27.68,20.21,50.72,40.14,101.55,60.17,152.34,11.37,28.85,22.52,57.78,34.22,86.49,3.77,9.25,8.86,17.98,13.62,26.8,1.35,2.5,3.48,4.67,5.55,6.68,7.3,7.1,16.29,7.04,23.74.16,8.64-7.98,13.25-18.5,17.38-29,27.04-68.69,53.67-137.53,80.59-206.26,5.94-15.17,12.2-30.24,18.9-45.09,6.2-13.74,16.45-23.81,31.09-28.18,15.41-4.6,31.15-5.02,46.24,1.27,9.91,4.13,15.19,11.93,15.59,23.17.43,12.22-3.68,23.3-7.99,34.19-15,37.89-30.5,75.59-45.77,113.38-15,37.12-29.92,74.27-44.91,111.39-16.19,40.09-32.36,80.2-48.67,120.24-6.86,16.85-13.77,33.68-21.15,50.3-4.11,9.27-10.24,17.31-18.64,23.27-13.35,9.49-28.52,10.99-44.25,9.55-25.74-2.35-40.04-18.7-49.12-40.93-19.15-46.9-38.06-93.89-57.1-140.84-19.27-47.49-38.64-94.94-57.83-142.46-14.28-35.36-28.46-70.76-42.4-106.25-3.97-10.11-7.67-20.37-7.17-31.68.51-11.48,5.99-20.4,17.02-23.9,7.39-2.35,15.24-3.27,22.88-4.83.08.35.16.71.24,1.06Z"/>
    </g>
  </g>
</svg>